<svg width="80" height="80" viewBox="0 0 80 80" fill="none" xmlns="http://www.w3.org/2000/svg">
<path d="M22.9667 21.1998C27.4333 13.0332 33.3333 6.6665 40 6.6665C46.6667 6.6665 52.5667 13.0332 57.0333 21.1998C54.2 21.8998 51.6667 23.5665 50 25.8998C49.0399 24.5829 47.8289 23.4688 46.4367 22.6215C45.0445 21.7742 43.4986 21.2105 41.8878 20.9626C40.277 20.7148 38.6331 20.7879 37.0506 21.1775C35.4681 21.5672 33.9782 22.2658 32.6667 23.2332C31.6667 23.9665 30.7333 24.8665 30 25.8998C28.3333 23.5665 25.8 21.8998 22.9667 21.1998ZM50 60.1998L40 50.1998L30 60.1998L20 50.1998L15.7667 54.4332C17.3971 60.858 21.511 66.3729 27.2047 69.7667C32.8985 73.1604 39.7065 74.1554 46.1333 72.5332C50.4967 71.4175 54.4794 69.1484 57.664 65.9639C60.8486 62.7793 63.1177 58.7965 64.2333 54.4332L60 50.1998L50 60.1998ZM30 53.1332L40 43.1332L50 53.1332L60 43.1332L65 48.1332C64.5667 40.4332 62.6667 32.8665 59.3667 25.8665C55.5 26.1998 52.5 29.4332 52.5 33.3332H47.5C47.5 31.344 46.7098 29.4364 45.3033 28.0299C43.8968 26.6233 41.9891 25.8332 40 25.8332C38.0109 25.8332 36.1032 26.6233 34.6967 28.0299C33.2902 29.4364 32.5 31.344 32.5 33.3332H27.5C27.5 29.4332 24.5 26.1998 20.6333 25.8665C17.3333 32.8665 15.4333 40.4332 15 48.1332L20 43.1332L30 53.1332Z" fill="#F2D89D"/>
</svg>
